<svg width="94" height="70" viewBox="0 0 94 70" fill="none" xmlns="http://www.w3.org/2000/svg">
<path d="M34.1519 21.0092C42.4332 21.2137 49.5068 26.7731 52.7402 34.3673C61.1613 37.6877 64.8785 47.6094 62.3453 56.1234C60.3951 62.7815 54.6038 67.9946 47.5948 67.995C48.6605 67.9883 50.9179 68.0399 51.9371 67.9144C53.5213 67.7458 55.0669 67.3112 56.5108 66.6283C62.5131 63.7814 66.0515 57.2648 65.9994 50.6388C66.0132 44.2453 62.7402 37.9484 57.0364 35.0104L57.0351 35.0098C56.5723 34.7716 56.0979 34.5571 55.6139 34.3673C54.1981 31.0711 52.0531 28.0888 49.3251 25.7885L49.322 25.7858C46.606 23.4906 43.3093 21.8909 39.8201 21.2881C39.0425 21.152 38.2574 21.0645 37.4693 21.0261C36.7823 20.9814 34.3725 21.0093 33.6538 21.002C33.8202 21.0022 33.9859 21.0036 34.1519 21.0092Z" fill="url(#paint0_linear_708_64)"/>
<path d="M13.005 53.9923C13.0605 55.6188 14.0198 57.226 15.5203 57.8652C15.9019 58.0293 16.3083 58.1261 16.722 58.1512C16.6857 58.1592 19.7357 58.1592 19.8098 58.158C17.7439 58.1715 16.1048 56.3493 15.906 54.3307C15.7327 52.8815 16.2571 51.3456 17.3471 50.3784C17.909 49.8686 18.6092 49.5426 19.3564 49.443C19.7889 49.3927 20.2298 49.4291 20.656 49.3215C21.831 49.0735 22.8512 48.2755 23.4758 47.2461L23.4769 47.2442C23.8954 46.5522 24.1479 45.77 24.2142 44.9606C24.2461 44.5903 24.2289 44.217 24.2501 43.8461C24.2705 43.3712 24.3155 42.8971 24.3799 42.4268C24.6069 40.7941 25.1071 39.2128 25.8589 37.7513C27.9273 33.7015 31.9968 30.8417 36.5569 30.8623C35.6457 30.8705 33.3478 30.8203 32.4879 30.9267C31.5345 31.029 30.5977 31.2535 29.6999 31.5948C25.6798 33.1047 22.7308 36.8729 21.7619 41.0625C21.5219 42.0829 21.3888 43.1262 21.3649 44.1749C21.4164 45.6795 20.9138 47.1894 19.8128 48.2269C19.2169 48.8041 18.4687 49.193 17.6591 49.3462C17.2958 49.4235 16.9228 49.3995 16.5557 49.434C15.3643 49.5541 14.2941 50.3137 13.6751 51.34L13.6744 51.3413C13.1952 52.1371 12.9621 53.0606 13.005 53.9923Z" fill="url(#paint1_linear_708_64)"/>
<path d="M58.1519 3.00921C66.4332 3.2137 73.5068 8.77312 76.7402 16.3673C85.1613 19.6877 88.8785 29.6094 86.3453 38.1234C84.3951 44.7815 78.6038 49.9946 71.5948 49.995C72.6605 49.9883 74.9179 50.0399 75.9371 49.9144C77.5213 49.7458 79.0669 49.3112 80.5108 48.6283C86.5131 45.7814 90.0515 39.2648 89.9994 32.6388C90.0132 26.2453 86.7402 19.9484 81.0364 17.0104L81.0351 17.0098C80.5723 16.7716 80.0979 16.5571 79.6139 16.3673C78.1981 13.0711 76.0531 10.0888 73.3251 7.78853L73.322 7.78583C70.606 5.49055 67.3093 3.89087 63.8201 3.28807C63.0425 3.15195 62.2574 3.06446 61.4693 3.02608C60.7823 2.9814 58.3725 3.00934 57.6538 3.00198C57.8202 3.00219 57.9859 3.0036 58.1519 3.00921Z" fill="url(#paint2_linear_708_64)"/>
<path d="M37.005 35.9923C37.0605 37.6188 38.0198 39.226 39.5203 39.8652C39.9019 40.0293 40.3083 40.1261 40.722 40.1512C40.6857 40.1592 43.7357 40.1592 43.8098 40.158C41.7439 40.1715 40.1048 38.3493 39.906 36.3307C39.7327 34.8815 40.2571 33.3456 41.3471 32.3784C41.909 31.8686 42.6092 31.5426 43.3564 31.443C43.7889 31.3927 44.2298 31.4291 44.656 31.3215C45.831 31.0735 46.8512 30.2755 47.4758 29.2461L47.4769 29.2442C47.8954 28.5522 48.1479 27.77 48.2142 26.9606C48.2461 26.5903 48.2289 26.217 48.2501 25.8461C48.2705 25.3712 48.3155 24.8971 48.3799 24.4268C48.6069 22.7941 49.1071 21.2128 49.8589 19.7513C51.9273 15.7015 55.9968 12.8417 60.5569 12.8623C59.6457 12.8705 57.3478 12.8203 56.4879 12.9267C55.5345 13.029 54.5977 13.2535 53.6999 13.5948C49.6798 15.1047 46.7308 18.8729 45.7619 23.0625C45.5219 24.0829 45.3888 25.1262 45.3649 26.1749C45.4164 27.6795 44.9138 29.1894 43.8128 30.2269C43.2169 30.8041 42.4687 31.193 41.6591 31.3462C41.2958 31.4235 40.9228 31.3995 40.5557 31.434C39.3643 31.5541 38.2941 32.3137 37.6751 33.34L37.6744 33.3413C37.1952 34.1371 36.9621 35.0606 37.005 35.9923Z" fill="url(#paint3_linear_708_64)"/>
<path d="M52.6387 34.3408C68.6483 40.8049 65.4691 67.3447 47.485 68H16.749C1.90082 67.5838 -0.659132 45.4 12.6867 40.2842C16.4407 18.3312 43.2332 13.4697 52.6387 34.3408ZM54.0051 52.0325C54.7202 48.2781 52.3445 44.027 48.6055 43.3241C47.0293 43.0316 45.7045 41.787 45.174 40.0793C43.4708 34.5604 38.7993 30.8451 33.5487 30.8329C26.7443 30.8329 21.2211 36.9557 21.2051 44.4799C21.2051 47.192 19.2168 49.4005 16.7728 49.4005C11.5511 49.634 11.5382 57.912 16.7728 58.1536H47.4799C50.671 58.1127 53.4231 55.5374 54.0053 52.0325" fill="#1869FF"/>
<path d="M76.6387 16.3408C92.6483 22.8049 89.4691 49.3447 71.485 50H40.749C25.9008 49.5838 23.3409 27.4 36.6867 22.2842C40.4407 0.331165 67.2332 -4.53029 76.6387 16.3408ZM78.0051 34.0325C78.7202 30.2781 76.3445 26.027 72.6055 25.3241C71.0293 25.0316 69.7045 23.787 69.174 22.0793C67.4708 16.5604 62.7993 12.8451 57.5487 12.8329C50.7443 12.8329 45.2211 18.9557 45.2051 26.4799C45.2051 29.192 43.2168 31.4005 40.7728 31.4005C35.5511 31.634 35.5382 39.912 40.7728 40.1536H71.4799C74.671 40.1127 77.4231 37.5374 78.0053 34.0325" fill="#1869FF"/>
<g style="mix-blend-mode:multiply" opacity="0.4" filter="url(#filter0_f_708_64)">
<path d="M58.4038 42.0055C64.5657 50.8494 59.2331 64.8522 47.955 65H17.2777C14.9745 65 12.7098 64.1359 10.9014 62.5675C4.01888 56.6068 6.68101 44.3414 15.4499 42.5164C17.5287 21.7865 43.132 16.545 51.2933 36.7057C54.1682 37.5726 56.6318 39.3902 58.4038 42.0055ZM56.9199 52.4514C57.8952 47.3669 54.6479 41.6083 49.5329 40.6538C48.8192 40.5223 48.2404 39.9838 48.0088 39.246C45.9659 32.6911 40.3578 28.276 34.0548 28.2609C25.6693 28.1362 19.0702 36.1683 19.2387 44.4825C19.2387 45.6584 18.3695 46.614 17.3016 46.614C8.78791 46.9934 8.77514 60.3546 17.3016 60.7407H47.9671C52.3581 60.6853 56.1232 57.1993 56.9199 52.4514Z" fill="#0440AD"/>
</g>
<g style="mix-blend-mode:multiply" opacity="0.4" filter="url(#filter1_f_708_64)">
<path d="M82.4038 24.0055C88.5657 32.8494 83.2331 46.8522 71.955 47H41.2777C38.9745 47 36.7098 46.1359 34.9014 44.5675C28.0189 38.6068 30.681 26.3414 39.4499 24.5164C41.5287 3.78651 67.132 -1.45502 75.2933 18.7057C78.1682 19.5726 80.6318 21.3902 82.4038 24.0055ZM80.9199 34.4514C81.8952 29.3669 78.6479 23.6083 73.5329 22.6538C72.8192 22.5223 72.2404 21.9838 72.0088 21.246C69.9659 14.6911 64.3578 10.276 58.0548 10.2609C49.6693 10.1362 43.0702 18.1683 43.2387 26.4825C43.2387 27.6584 42.3695 28.614 41.3016 28.614C32.7879 28.9934 32.7751 42.3546 41.3016 42.7407H71.9671C76.3581 42.6853 80.1232 39.1993 80.9199 34.4514Z" fill="#0440AD"/>
</g>
<path d="M8.00573 53.9615C8.0724 56.1638 9.14921 58.346 10.9641 59.6207C11.9805 60.3455 13.1965 60.737 14.4445 60.7413H15.1632C13.4343 60.752 11.7561 59.9454 10.6055 58.6676C8.13268 55.9767 8.09254 51.5527 10.5037 48.8099C11.4755 47.6887 12.8354 46.8928 14.3109 46.684C14.6972 46.613 15.0934 46.6476 15.4807 46.5931C15.7469 46.5404 15.9991 46.4326 16.2212 46.2765C16.4433 46.1204 16.6303 45.9195 16.7702 45.6868C16.7708 45.6857 16.7716 45.6848 16.7722 45.6837C16.9433 45.4047 17.0514 45.0917 17.0891 44.7665C17.1218 44.4232 17.1013 44.0759 17.1236 43.7321C17.1705 42.6357 17.3192 41.546 17.5679 40.4772C18.6422 35.7741 21.8351 31.5034 26.2679 29.5042L26.2693 29.5035C27.1575 29.103 28.0851 28.7967 29.037 28.5896H29.0377C30.0007 28.3833 30.9827 28.279 31.9675 28.2785C30.7506 28.257 29.5081 28.3237 28.3191 28.5896H28.3183C27.3664 28.7967 26.4388 29.103 25.5506 29.5035L25.5493 29.5042C23.6064 30.3821 21.8793 31.7096 20.4815 33.3168C18.6061 35.4657 17.3282 38.115 16.7544 40.9066C16.5706 41.7987 16.4557 42.7036 16.4107 43.6133C16.3823 43.9971 16.4045 44.3837 16.3707 44.7669C16.3331 45.0917 16.2251 45.4044 16.0543 45.6831L16.0517 45.6871C15.7145 46.2403 15.0999 46.6272 14.4449 46.6218C12.6642 46.6099 10.9423 47.4668 9.78697 48.8077C9.53561 49.0971 9.30787 49.4062 9.10594 49.7321C9.01846 49.8741 8.93567 50.019 8.85758 50.1669C8.24811 51.3358 7.95446 52.644 8.00573 53.9615Z" fill="url(#paint4_linear_708_64)"/>
<path d="M31.6323 24.0059C39.4147 24.196 45.8683 29.5622 48.5401 36.7189C52.5909 37.9154 55.7123 41.0722 57.2312 44.9744C58.3336 47.796 58.5648 50.9439 57.9371 53.9046C56.6814 59.98 51.5673 64.996 45.1917 64.9983C45.7584 65.0026 46.4073 65.0027 46.9647 64.9489C48.0268 64.8539 49.0718 64.6189 50.0724 64.25C54.3526 62.6842 57.5097 58.7392 58.5543 54.351C59.2697 51.4054 59.1214 48.3158 58.127 45.4525C56.8693 41.851 54.1732 38.7001 50.6272 37.2142C50.1897 37.0273 49.7132 36.8644 49.2588 36.7187C46.5774 29.5375 40.0956 24.1684 32.2876 24.0039H32.2846C32.0476 23.9978 31.4591 24.0009 31.2138 24.0002C31.3536 24.0005 31.4929 24.0013 31.6323 24.0059Z" fill="url(#paint5_linear_708_64)"/>
<path d="M32.0057 35.9615C32.0724 38.1638 33.1492 40.346 34.9641 41.6207C35.9805 42.3455 37.1965 42.737 38.4445 42.7413H39.1632C37.4343 42.752 35.7561 41.9454 34.6055 40.6676C32.1327 37.9767 32.0925 33.5527 34.5037 30.8099C35.4755 29.6887 36.8354 28.8928 38.3109 28.684C38.6972 28.613 39.0934 28.6476 39.4807 28.5931C39.7469 28.5404 39.9991 28.4326 40.2212 28.2765C40.4433 28.1204 40.6303 27.9195 40.7702 27.6868C40.7708 27.6857 40.7716 27.6848 40.7722 27.6837C40.9433 27.4047 41.0514 27.0917 41.0891 26.7665C41.1218 26.4232 41.1013 26.0759 41.1236 25.7321C41.1705 24.6357 41.3192 23.546 41.5679 22.4772C42.6422 17.7741 45.8351 13.5034 50.2679 11.5042L50.2693 11.5035C51.1575 11.103 52.0851 10.7967 53.037 10.5896H53.0377C54.0007 10.3833 54.9827 10.279 55.9675 10.2785C54.7506 10.257 53.5081 10.3237 52.3191 10.5896H52.3183C51.3664 10.7967 50.4388 11.103 49.5506 11.5035L49.5493 11.5042C47.6064 12.3821 45.8793 13.7096 44.4815 15.3168C42.6061 17.4657 41.3282 20.115 40.7544 22.9066C40.5706 23.7987 40.4557 24.7036 40.4107 25.6133C40.3823 25.9971 40.4045 26.3837 40.3707 26.7669C40.3331 27.0917 40.2251 27.4044 40.0543 27.6831L40.0517 27.6871C39.7145 28.2403 39.0999 28.6272 38.4449 28.6218C36.6642 28.6099 34.9423 29.4668 33.787 30.8077C33.5356 31.0971 33.3079 31.4062 33.1059 31.7321C33.0185 31.8741 32.9357 32.019 32.8576 32.1669C32.2481 33.3358 31.9545 34.644 32.0057 35.9615Z" fill="url(#paint6_linear_708_64)"/>
<path d="M55.6323 6.00587C63.4147 6.196 69.8683 11.5622 72.5401 18.7189C76.5909 19.9154 79.7123 23.0722 81.2312 26.9744C82.3336 29.796 82.5648 32.9439 81.9371 35.9046C80.6814 41.98 75.5673 46.996 69.1917 46.9983C69.7584 47.0026 70.4073 47.0027 70.9647 46.9489C72.0268 46.8539 73.0718 46.6189 74.0724 46.25C78.3526 44.6842 81.5097 40.7392 82.5543 36.351C83.2697 33.4054 83.1214 30.3158 82.127 27.4525C80.8693 23.851 78.1732 20.7001 74.6272 19.2142C74.1897 19.0273 73.7132 18.8644 73.2588 18.7187C70.5774 11.5375 64.0956 6.16837 56.2876 6.00387H56.2846C56.0476 5.9978 55.4591 6.00087 55.2138 6.0002C55.3536 6.00047 55.4929 6.00133 55.6323 6.00587Z" fill="url(#paint7_linear_708_64)"/>
<path d="M55.4037 42.0053C61.5657 50.8493 56.233 64.8522 44.955 65H14.2777C11.9746 65 9.70979 64.1359 7.90136 62.5675C1.01886 56.6067 3.68106 44.3412 12.45 42.5163C14.5287 21.7865 40.1317 16.545 48.2933 36.7058C51.1682 37.5724 53.6319 39.39 55.4037 42.0053ZM53.92 52.4513C54.8952 47.3668 51.6479 41.6081 46.5329 40.6536C45.8192 40.5222 45.2404 39.9836 45.0087 39.2458C42.9659 32.6908 37.358 28.2757 31.0549 28.2606C22.6693 28.1359 16.0702 36.168 16.2387 44.4823C16.2387 45.6583 15.3695 46.6138 14.3016 46.6138C5.78788 46.9933 5.77512 60.3546 14.3016 60.7406H44.9671C49.358 60.6853 53.1232 57.1993 53.92 52.4513Z" fill="#F0F8FF"/>
<path d="M79.4037 24.0053C85.5657 32.8493 80.233 46.8522 68.955 47H38.2777C35.9746 47 33.7098 46.1359 31.9014 44.5675C25.0189 38.6067 27.6811 26.3412 36.45 24.5163C38.5287 3.78652 64.1317 -1.45505 72.2933 18.7058C75.1682 19.5724 77.6319 21.39 79.4037 24.0053ZM77.92 34.4513C78.8952 29.3668 75.6479 23.6081 70.5329 22.6536C69.8192 22.5222 69.2404 21.9836 69.0087 21.2458C66.9659 14.6908 61.358 10.2757 55.0549 10.2606C46.6693 10.1359 40.0702 18.168 40.2387 26.4823C40.2387 27.6583 39.3695 28.6138 38.3016 28.6138C29.7879 28.9933 29.7751 42.3546 38.3016 42.7406H68.9671C73.358 42.6853 77.1232 39.1993 77.92 34.4513Z" fill="#F0F8FF"/>
<defs>
<filter id="filter0_f_708_64" x="4" y="21" width="60" height="47" filterUnits="userSpaceOnUse" color-interpolation-filters="sRGB">
<feFlood flood-opacity="0" result="BackgroundImageFix"/>
<feBlend mode="normal" in="SourceGraphic" in2="BackgroundImageFix" result="shape"/>
<feGaussianBlur stdDeviation="1.5" result="effect1_foregroundBlur_708_64"/>
</filter>
<filter id="filter1_f_708_64" x="28" y="3" width="60" height="47" filterUnits="userSpaceOnUse" color-interpolation-filters="sRGB">
<feFlood flood-opacity="0" result="BackgroundImageFix"/>
<feBlend mode="normal" in="SourceGraphic" in2="BackgroundImageFix" result="shape"/>
<feGaussianBlur stdDeviation="1.5" result="effect1_foregroundBlur_708_64"/>
</filter>
<linearGradient id="paint0_linear_708_64" x1="39.5" y1="21" x2="39.5" y2="68" gradientUnits="userSpaceOnUse">
<stop stop-color="#0440AD"/>
<stop offset="1" stop-color="#1869FF"/>
</linearGradient>
<linearGradient id="paint1_linear_708_64" x1="39.5" y1="21" x2="39.5" y2="68" gradientUnits="userSpaceOnUse">
<stop stop-color="#0440AD"/>
<stop offset="1" stop-color="#1869FF"/>
</linearGradient>
<linearGradient id="paint2_linear_708_64" x1="63.5" y1="3" x2="63.5" y2="50" gradientUnits="userSpaceOnUse">
<stop stop-color="#0440AD"/>
<stop offset="1" stop-color="#1869FF"/>
</linearGradient>
<linearGradient id="paint3_linear_708_64" x1="63.5" y1="3" x2="63.5" y2="50" gradientUnits="userSpaceOnUse">
<stop stop-color="#0440AD"/>
<stop offset="1" stop-color="#1869FF"/>
</linearGradient>
<linearGradient id="paint4_linear_708_64" x1="33.5" y1="24" x2="33.5" y2="65" gradientUnits="userSpaceOnUse">
<stop stop-color="#81ADFF"/>
<stop offset="1" stop-color="#F0F8FF"/>
</linearGradient>
<linearGradient id="paint5_linear_708_64" x1="33.5" y1="24" x2="33.5" y2="65" gradientUnits="userSpaceOnUse">
<stop stop-color="#81ADFF"/>
<stop offset="1" stop-color="#F0F8FF"/>
</linearGradient>
<linearGradient id="paint6_linear_708_64" x1="57.5" y1="6" x2="57.5" y2="47" gradientUnits="userSpaceOnUse">
<stop stop-color="#81ADFF"/>
<stop offset="1" stop-color="#F0F8FF"/>
</linearGradient>
<linearGradient id="paint7_linear_708_64" x1="57.5" y1="6" x2="57.5" y2="47" gradientUnits="userSpaceOnUse">
<stop stop-color="#81ADFF"/>
<stop offset="1" stop-color="#F0F8FF"/>
</linearGradient>
</defs>
</svg>
